<?xml version="1.0" encoding="UTF-8" standalone="no"?>
<!-- Created by Makercase v3 -->

<svg
   width="20.512in"
   height="14.630in"
   viewBox="-5 -366.59765625 521.00 371.60"
   version="1.1"
   id="svg212"
   sodipodi:docname="box-all.svg"
   xml:space="preserve"
   inkscape:version="1.2.1 (9c6d41e410, 2022-07-14)"
   xmlns:inkscape="http://www.inkscape.org/namespaces/inkscape"
   xmlns:sodipodi="http://sodipodi.sourceforge.net/DTD/sodipodi-0.dtd"
   xmlns="http://www.w3.org/2000/svg"
   xmlns:svg="http://www.w3.org/2000/svg"><defs
     id="defs216" /><sodipodi:namedview
     id="namedview214"
     pagecolor="#ffffff"
     bordercolor="#000000"
     borderopacity="0.25"
     inkscape:showpageshadow="2"
     inkscape:pageopacity="0.0"
     inkscape:pagecheckerboard="0"
     inkscape:deskcolor="#d1d1d1"
     inkscape:document-units="in"
     showgrid="false"
     inkscape:zoom="0.80655122"
     inkscape:cx="515.15637"
     inkscape:cy="500.89813"
     inkscape:window-width="1920"
     inkscape:window-height="991"
     inkscape:window-x="-9"
     inkscape:window-y="-9"
     inkscape:window-maximized="1"
     inkscape:current-layer="svg212" /><path
     d="M23.500 -3.000L23.500 0.000L32.500 0.000L32.500 -3.000L41.500 -3.000L41.500 0.000L50.500 0.000L50.500 -3.000L59.500 -3.000L59.500 0.000L68.500 0.000L68.500 -3.000L77.500 -3.000L77.500 0.000L86.500 0.000L86.500 -3.000L95.500 -3.000L95.500 0.000L104.500 0.000L104.500 -3.000L113.500 -3.000L113.500 0.000L122.500 0.000L122.500 -3.000L131.500 -3.000L131.500 0.000L140.500 0.000L140.500 -3.000L149.500 -3.000L149.500 0.000L158.500 0.000L158.500 -3.000L167.500 -3.000L167.500 0.000L176.500 0.000L176.500 -3.000L185.500 -3.000L185.500 0.000L194.500 0.000L194.500 -3.000L203.500 -3.000L203.500 0.000L212.500 0.000L212.500 -3.000L221.500 -3.000L221.500 0.000L230.500 0.000L230.500 -3.000L239.500 -3.000L239.500 0.000L251.000 0.000L251.000 -3.000L251.000 -6.600L254.000 -6.600L254.000 -15.600L251.000 -15.600L251.000 -24.600L254.000 -24.600L254.000 -33.600L251.000 -33.600L251.000 -42.600L254.000 -42.600L254.000 -51.600L251.000 -51.600L251.000 -60.600L254.000 -60.600L254.000 -69.600L251.000 -69.600L251.000 -73.199L251.000 -76.199L239.500 -76.199L239.500 -73.199L230.500 -73.199L230.500 -76.199L221.500 -76.199L221.500 -73.199L212.500 -73.199L212.500 -76.199L203.500 -76.199L203.500 -73.199L194.500 -73.199L194.500 -76.199L185.500 -76.199L185.500 -73.199L176.500 -73.199L176.500 -76.199L167.500 -76.199L167.500 -73.199L158.500 -73.199L158.500 -76.199L149.500 -76.199L149.500 -73.199L140.500 -73.199L140.500 -76.199L131.500 -76.199L131.500 -73.199L122.500 -73.199L122.500 -76.199L113.500 -76.199L113.500 -73.199L104.500 -73.199L104.500 -76.199L95.500 -76.199L95.500 -73.199L86.500 -73.199L86.500 -76.199L77.500 -76.199L77.500 -73.199L68.500 -73.199L68.500 -76.199L59.500 -76.199L59.500 -73.199L50.500 -73.199L50.500 -76.199L41.500 -76.199L41.500 -73.199L32.500 -73.199L32.500 -76.199L23.500 -76.199L23.500 -73.199L14.500 -73.199L14.500 -76.199L3.000 -76.199L3.000 -73.199L3.000 -69.600L0.000 -69.600L0.000 -60.600L3.000 -60.600L3.000 -51.600L0.000 -51.600L0.000 -42.600L3.000 -42.600L3.000 -33.600L0.000 -33.600L0.000 -24.600L3.000 -24.600L3.000 -15.600L0.000 -15.600L0.000 -6.600L3.000 -6.600L3.000 -3.000L3.000 0.000L14.500 0.000L14.500 -3.000L23.500 -3.000Z"
     fill="none"
     stroke="#ff0000"
     stroke-width="0.100"
     id="path200" /><path
     d="M280.500 -3.000L280.500 0.000L289.500 0.000L289.500 -3.000L298.500 -3.000L298.500 0.000L307.500 0.000L307.500 -3.000L316.500 -3.000L316.500 0.000L325.500 0.000L325.500 -3.000L334.500 -3.000L334.500 0.000L343.500 0.000L343.500 -3.000L352.500 -3.000L352.500 0.000L361.500 0.000L361.500 -3.000L370.500 -3.000L370.500 0.000L379.500 0.000L379.500 -3.000L388.500 -3.000L388.500 0.000L397.500 0.000L397.500 -3.000L406.500 -3.000L406.500 0.000L415.500 0.000L415.500 -3.000L424.500 -3.000L424.500 0.000L433.500 0.000L433.500 -3.000L442.500 -3.000L442.500 0.000L451.500 0.000L451.500 -3.000L460.500 -3.000L460.500 0.000L469.500 0.000L469.500 -3.000L478.500 -3.000L478.500 0.000L487.500 0.000L487.500 -3.000L496.500 -3.000L496.500 0.000L508.000 0.000L508.000 -3.000L508.000 -6.600L511.000 -6.600L511.000 -15.600L508.000 -15.600L508.000 -24.600L511.000 -24.600L511.000 -33.600L508.000 -33.600L508.000 -42.600L511.000 -42.600L511.000 -51.600L508.000 -51.600L508.000 -60.600L511.000 -60.600L511.000 -69.600L508.000 -69.600L508.000 -73.199L508.000 -76.199L496.500 -76.199L496.500 -73.199L487.500 -73.199L487.500 -76.199L478.500 -76.199L478.500 -73.199L469.500 -73.199L469.500 -76.199L460.500 -76.199L460.500 -73.199L451.500 -73.199L451.500 -76.199L442.500 -76.199L442.500 -73.199L433.500 -73.199L433.500 -76.199L424.500 -76.199L424.500 -73.199L415.500 -73.199L415.500 -76.199L406.500 -76.199L406.500 -73.199L397.500 -73.199L397.500 -76.199L388.500 -76.199L388.500 -73.199L379.500 -73.199L379.500 -76.199L370.500 -76.199L370.500 -73.199L361.500 -73.199L361.500 -76.199L352.500 -76.199L352.500 -73.199L343.500 -73.199L343.500 -76.199L334.500 -76.199L334.500 -73.199L325.500 -73.199L325.500 -76.199L316.500 -76.199L316.500 -73.199L307.500 -73.199L307.500 -76.199L298.500 -76.199L298.500 -73.199L289.500 -73.199L289.500 -76.199L280.500 -76.199L280.500 -73.199L271.500 -73.199L271.500 -76.199L260.000 -76.199L260.000 -73.199L260.000 -69.600L257.000 -69.600L257.000 -60.600L260.000 -60.600L260.000 -51.600L257.000 -51.600L257.000 -42.600L260.000 -42.600L260.000 -33.600L257.000 -33.600L257.000 -24.600L260.000 -24.600L260.000 -15.600L257.000 -15.600L257.000 -6.600L260.000 -6.600L260.000 -3.000L260.000 0.000L271.500 0.000L271.500 -3.000L280.500 -3.000Z"
     fill="none"
     stroke="#ff0000"
     stroke-width="0.100"
     id="path202" /><path
     d="M16.100 -82.199L16.100 -79.199L25.100 -79.199L25.100 -82.199L34.100 -82.199L34.100 -79.199L43.100 -79.199L43.100 -82.199L52.100 -82.199L52.100 -79.199L61.100 -79.199L61.100 -82.199L70.100 -82.199L70.100 -79.199L79.100 -79.199L79.100 -82.199L88.100 -82.199L88.100 -79.199L97.100 -79.199L97.100 -82.199L106.100 -82.199L106.100 -79.199L115.100 -79.199L115.100 -82.199L124.100 -82.199L124.100 -79.199L133.100 -79.199L133.100 -82.199L142.100 -82.199L142.100 -79.199L151.100 -79.199L151.100 -82.199L160.100 -82.199L160.100 -79.199L169.100 -79.199L169.100 -82.199L178.100 -82.199L178.100 -79.199L187.100 -79.199L187.100 -82.199L196.100 -82.199L196.100 -79.199L200.199 -79.199L203.199 -79.199L203.199 -82.199L203.199 -85.799L200.199 -85.799L200.199 -94.799L203.199 -94.799L203.199 -103.799L200.199 -103.799L200.199 -112.799L203.199 -112.799L203.199 -121.799L200.199 -121.799L200.199 -130.799L203.199 -130.799L203.199 -139.799L200.199 -139.799L200.199 -148.799L203.199 -148.799L203.199 -152.398L203.199 -155.398L200.199 -155.398L196.100 -155.398L196.100 -152.398L187.100 -152.398L187.100 -155.398L178.100 -155.398L178.100 -152.398L169.100 -152.398L169.100 -155.398L160.100 -155.398L160.100 -152.398L151.100 -152.398L151.100 -155.398L142.100 -155.398L142.100 -152.398L133.100 -152.398L133.100 -155.398L124.100 -155.398L124.100 -152.398L115.100 -152.398L115.100 -155.398L106.100 -155.398L106.100 -152.398L97.100 -152.398L97.100 -155.398L88.100 -155.398L88.100 -152.398L79.100 -152.398L79.100 -155.398L70.100 -155.398L70.100 -152.398L61.100 -152.398L61.100 -155.398L52.100 -155.398L52.100 -152.398L43.100 -152.398L43.100 -155.398L34.100 -155.398L34.100 -152.398L25.100 -152.398L25.100 -155.398L16.100 -155.398L16.100 -152.398L7.100 -152.398L7.100 -155.398L3.000 -155.398L0.000 -155.398L0.000 -152.398L0.000 -148.799L3.000 -148.799L3.000 -139.799L0.000 -139.799L0.000 -130.799L3.000 -130.799L3.000 -121.799L0.000 -121.799L0.000 -112.799L3.000 -112.799L3.000 -103.799L0.000 -103.799L0.000 -94.799L3.000 -94.799L3.000 -85.799L0.000 -85.799L0.000 -82.199L0.000 -79.199L3.000 -79.199L7.100 -79.199L7.100 -82.199L16.100 -82.199Z"
     fill="none"
     stroke="#ff0000"
     stroke-width="0.100"
     id="path204" /><path
     d="M222.299 -82.199L222.299 -79.199L231.299 -79.199L231.299 -82.199L240.299 -82.199L240.299 -79.199L249.299 -79.199L249.299 -82.199L258.299 -82.199L258.299 -79.199L267.299 -79.199L267.299 -82.199L276.299 -82.199L276.299 -79.199L285.299 -79.199L285.299 -82.199L294.299 -82.199L294.299 -79.199L303.299 -79.199L303.299 -82.199L312.299 -82.199L312.299 -79.199L321.299 -79.199L321.299 -82.199L330.299 -82.199L330.299 -79.199L339.299 -79.199L339.299 -82.199L348.299 -82.199L348.299 -79.199L357.299 -79.199L357.299 -82.199L366.299 -82.199L366.299 -79.199L375.299 -79.199L375.299 -82.199L384.299 -82.199L384.299 -79.199L393.299 -79.199L393.299 -82.199L402.299 -82.199L402.299 -79.199L406.398 -79.199L409.398 -79.199L409.398 -82.199L409.398 -85.799L406.398 -85.799L406.398 -94.799L409.398 -94.799L409.398 -103.799L406.398 -103.799L406.398 -112.799L409.398 -112.799L409.398 -121.799L406.398 -121.799L406.398 -130.799L409.398 -130.799L409.398 -139.799L406.398 -139.799L406.398 -148.799L409.398 -148.799L409.398 -152.398L409.398 -155.398L406.398 -155.398L402.299 -155.398L402.299 -152.398L393.299 -152.398L393.299 -155.398L384.299 -155.398L384.299 -152.398L375.299 -152.398L375.299 -155.398L366.299 -155.398L366.299 -152.398L357.299 -152.398L357.299 -155.398L348.299 -155.398L348.299 -152.398L339.299 -152.398L339.299 -155.398L330.299 -155.398L330.299 -152.398L321.299 -152.398L321.299 -155.398L312.299 -155.398L312.299 -152.398L303.299 -152.398L303.299 -155.398L294.299 -155.398L294.299 -152.398L285.299 -152.398L285.299 -155.398L276.299 -155.398L276.299 -152.398L267.299 -152.398L267.299 -155.398L258.299 -155.398L258.299 -152.398L249.299 -152.398L249.299 -155.398L240.299 -155.398L240.299 -152.398L231.299 -152.398L231.299 -155.398L222.299 -155.398L222.299 -152.398L213.299 -152.398L213.299 -155.398L209.199 -155.398L206.199 -155.398L206.199 -152.398L206.199 -148.799L209.199 -148.799L209.199 -139.799L206.199 -139.799L206.199 -130.799L209.199 -130.799L209.199 -121.799L206.199 -121.799L206.199 -112.799L209.199 -112.799L209.199 -103.799L206.199 -103.799L206.199 -94.799L209.199 -94.799L209.199 -85.799L206.199 -85.799L206.199 -82.199L206.199 -79.199L209.199 -79.199L213.299 -79.199L213.299 -82.199L222.299 -82.199Z"
     fill="none"
     stroke="#ff0000"
     stroke-width="0.100"
     id="path206" /><path
     d="M32.500 -161.398L32.500 -158.398L41.500 -158.398L41.500 -161.398L50.500 -161.398L50.500 -158.398L59.500 -158.398L59.500 -161.398L68.500 -161.398L68.500 -158.398L77.500 -158.398L77.500 -161.398L86.500 -161.398L86.500 -158.398L95.500 -158.398L95.500 -161.398L104.500 -161.398L104.500 -158.398L113.500 -158.398L113.500 -161.398L122.500 -161.398L122.500 -158.398L131.500 -158.398L131.500 -161.398L140.500 -161.398L140.500 -158.398L149.500 -158.398L149.500 -161.398L158.500 -161.398L158.500 -158.398L167.500 -158.398L167.500 -161.398L176.500 -161.398L176.500 -158.398L185.500 -158.398L185.500 -161.398L194.500 -161.398L194.500 -158.398L203.500 -158.398L203.500 -161.398L212.500 -161.398L212.500 -158.398L221.500 -158.398L221.500 -161.398L230.500 -161.398L230.500 -158.398L239.500 -158.398L239.500 -161.398L251.000 -161.398L251.000 -165.498L254.000 -165.498L254.000 -174.498L251.000 -174.498L251.000 -183.498L254.000 -183.498L254.000 -192.498L251.000 -192.498L251.000 -201.498L254.000 -201.498L254.000 -210.498L251.000 -210.498L251.000 -219.498L254.000 -219.498L254.000 -228.498L251.000 -228.498L251.000 -237.498L254.000 -237.498L254.000 -246.498L251.000 -246.498L251.000 -255.498L254.000 -255.498L254.000 -264.498L251.000 -264.498L251.000 -273.498L254.000 -273.498L254.000 -282.498L251.000 -282.498L251.000 -291.498L254.000 -291.498L254.000 -300.498L251.000 -300.498L251.000 -309.498L254.000 -309.498L254.000 -318.498L251.000 -318.498L251.000 -327.498L254.000 -327.498L254.000 -336.498L251.000 -336.498L251.000 -345.498L254.000 -345.498L254.000 -354.498L251.000 -354.498L251.000 -358.598L239.500 -358.598L239.500 -361.598L230.500 -361.598L230.500 -358.598L221.500 -358.598L221.500 -361.598L212.500 -361.598L212.500 -358.598L203.500 -358.598L203.500 -361.598L194.500 -361.598L194.500 -358.598L185.500 -358.598L185.500 -361.598L176.500 -361.598L176.500 -358.598L167.500 -358.598L167.500 -361.598L158.500 -361.598L158.500 -358.598L149.500 -358.598L149.500 -361.598L140.500 -361.598L140.500 -358.598L131.500 -358.598L131.500 -361.598L122.500 -361.598L122.500 -358.598L113.500 -358.598L113.500 -361.598L104.500 -361.598L104.500 -358.598L95.500 -358.598L95.500 -361.598L86.500 -361.598L86.500 -358.598L77.500 -358.598L77.500 -361.598L68.500 -361.598L68.500 -358.598L59.500 -358.598L59.500 -361.598L50.500 -361.598L50.500 -358.598L41.500 -358.598L41.500 -361.598L32.500 -361.598L32.500 -358.598L23.500 -358.598L23.500 -361.598L14.500 -361.598L14.500 -358.598L3.000 -358.598L3.000 -354.498L0.000 -354.498L0.000 -345.498L3.000 -345.498L3.000 -336.498L0.000 -336.498L0.000 -327.498L3.000 -327.498L3.000 -318.498L0.000 -318.498L0.000 -309.498L3.000 -309.498L3.000 -300.498L0.000 -300.498L0.000 -291.498L3.000 -291.498L3.000 -282.498L0.000 -282.498L0.000 -273.498L3.000 -273.498L3.000 -264.498L0.000 -264.498L0.000 -255.498L3.000 -255.498L3.000 -246.498L0.000 -246.498L0.000 -237.498L3.000 -237.498L3.000 -228.498L0.000 -228.498L0.000 -219.498L3.000 -219.498L3.000 -210.498L0.000 -210.498L0.000 -201.498L3.000 -201.498L3.000 -192.498L0.000 -192.498L0.000 -183.498L3.000 -183.498L3.000 -174.498L0.000 -174.498L0.000 -165.498L3.000 -165.498L3.000 -161.398L14.500 -161.398L14.500 -158.398L23.500 -158.398L23.500 -161.398L32.500 -161.398Z"
     fill="none"
     stroke="#ff0000"
     stroke-width="0.100"
     id="path208" /><path
     d="M289.500 -161.398L289.500 -158.398L298.500 -158.398L298.500 -161.398L307.500 -161.398L307.500 -158.398L316.500 -158.398L316.500 -161.398L325.500 -161.398L325.500 -158.398L334.500 -158.398L334.500 -161.398L343.500 -161.398L343.500 -158.398L352.500 -158.398L352.500 -161.398L361.500 -161.398L361.500 -158.398L370.500 -158.398L370.500 -161.398L379.500 -161.398L379.500 -158.398L388.500 -158.398L388.500 -161.398L397.500 -161.398L397.500 -158.398L406.500 -158.398L406.500 -161.398L415.500 -161.398L415.500 -158.398L424.500 -158.398L424.500 -161.398L433.500 -161.398L433.500 -158.398L442.500 -158.398L442.500 -161.398L451.500 -161.398L451.500 -158.398L460.500 -158.398L460.500 -161.398L469.500 -161.398L469.500 -158.398L478.500 -158.398L478.500 -161.398L487.500 -161.398L487.500 -158.398L496.500 -158.398L496.500 -161.398L508.000 -161.398L508.000 -165.498L511.000 -165.498L511.000 -174.498L508.000 -174.498L508.000 -183.498L511.000 -183.498L511.000 -192.498L508.000 -192.498L508.000 -201.498L511.000 -201.498L511.000 -210.498L508.000 -210.498L508.000 -219.498L511.000 -219.498L511.000 -228.498L508.000 -228.498L508.000 -237.498L511.000 -237.498L511.000 -246.498L508.000 -246.498L508.000 -255.498L511.000 -255.498L511.000 -264.498L508.000 -264.498L508.000 -273.498L511.000 -273.498L511.000 -282.498L508.000 -282.498L508.000 -291.498L511.000 -291.498L511.000 -300.498L508.000 -300.498L508.000 -309.498L511.000 -309.498L511.000 -318.498L508.000 -318.498L508.000 -327.498L511.000 -327.498L511.000 -336.498L508.000 -336.498L508.000 -345.498L511.000 -345.498L511.000 -354.498L508.000 -354.498L508.000 -358.598L496.500 -358.598L496.500 -361.598L487.500 -361.598L487.500 -358.598L478.500 -358.598L478.500 -361.598L469.500 -361.598L469.500 -358.598L460.500 -358.598L460.500 -361.598L451.500 -361.598L451.500 -358.598L442.500 -358.598L442.500 -361.598L433.500 -361.598L433.500 -358.598L424.500 -358.598L424.500 -361.598L415.500 -361.598L415.500 -358.598L406.500 -358.598L406.500 -361.598L397.500 -361.598L397.500 -358.598L388.500 -358.598L388.500 -361.598L379.500 -361.598L379.500 -358.598L370.500 -358.598L370.500 -361.598L361.500 -361.598L361.500 -358.598L352.500 -358.598L352.500 -361.598L343.500 -361.598L343.500 -358.598L334.500 -358.598L334.500 -361.598L325.500 -361.598L325.500 -358.598L316.500 -358.598L316.500 -361.598L307.500 -361.598L307.500 -358.598L298.500 -358.598L298.500 -361.598L289.500 -361.598L289.500 -358.598L280.500 -358.598L280.500 -361.598L271.500 -361.598L271.500 -358.598L260.000 -358.598L260.000 -354.498L257.000 -354.498L257.000 -345.498L260.000 -345.498L260.000 -336.498L257.000 -336.498L257.000 -327.498L260.000 -327.498L260.000 -318.498L257.000 -318.498L257.000 -309.498L260.000 -309.498L260.000 -300.498L257.000 -300.498L257.000 -291.498L260.000 -291.498L260.000 -282.498L257.000 -282.498L257.000 -273.498L260.000 -273.498L260.000 -264.498L257.000 -264.498L257.000 -255.498L260.000 -255.498L260.000 -246.498L257.000 -246.498L257.000 -237.498L260.000 -237.498L260.000 -228.498L257.000 -228.498L257.000 -219.498L260.000 -219.498L260.000 -210.498L257.000 -210.498L257.000 -201.498L260.000 -201.498L260.000 -192.498L257.000 -192.498L257.000 -183.498L260.000 -183.498L260.000 -174.498L257.000 -174.498L257.000 -165.498L260.000 -165.498L260.000 -161.398L271.500 -161.398L271.500 -158.398L280.500 -158.398L280.500 -161.398L289.500 -161.398Z"
     fill="none"
     stroke="#ff0000"
     stroke-width="0.100"
     id="path210" /><path
     style="fill:none;stroke:#1a27e7;stroke-width:0.0558884;stroke-opacity:1"
     d="m 126.65696,-307.23995 c -0.74668,-0.0503 -2.0447,-0.20962 -2.73852,-0.33611 -2.12685,-0.38773 -3.75248,-0.93603 -6.56729,-2.21498 -1.87745,-0.85304 -2.88552,-1.13933 -4.22407,-1.19959 -1.43615,-0.0646 -2.91041,0.27721 -4.17939,0.96917 -0.1958,0.10677 -0.36401,0.18611 -0.37381,0.1763 -0.0367,-0.0367 0.26931,-0.87032 0.48095,-1.31015 0.3877,-0.80572 0.8593,-1.44806 1.61395,-2.19823 0.77036,-0.76579 1.42436,-1.25686 2.40736,-1.80763 1.98684,-1.11322 3.89398,-1.54975 6.42714,-1.47114 2.10068,0.0652 4.19155,0.47127 6.50753,1.26387 0.61666,0.21105 1.79407,0.6136 2.61646,0.89457 1.57645,0.5386 3.01476,0.93102 4.03767,1.1016 0.94949,0.15835 2.80435,0.1458 3.64547,-0.0246 2.09778,-0.42514 4.10857,-1.62465 5.23141,-3.12076 0.92118,-1.22739 1.32272,-2.48015 1.32272,-4.12671 0,-0.96288 -0.10302,-1.61305 -0.39891,-2.5175 -0.48534,-1.48355 -1.20678,-2.69613 -2.19823,-3.69474 -0.69016,-0.69514 -1.14296,-1.06322 -2.8799,-2.34105 -2.89955,-2.13313 -3.77234,-2.91693 -4.84317,-4.34943 l -0.41032,-0.5489 -2.2e-4,0.49301 c -5.1e-4,1.32311 -0.44361,2.6976 -1.24793,3.87183 -0.39413,0.5754 -1.24072,1.44124 -1.88249,1.92529 -1.63093,1.23012 -3.44753,1.98266 -6.34939,2.63024 -0.96979,0.21642 -1.61812,0.39282 -2.61976,0.7128 -0.19716,0.063 -0.0488,0.0747 1.2575,0.0994 l 1.48103,0.0279 0.0156,0.71258 0.0156,0.71257 h -1.00309 c -0.55169,0 -1.04287,0.0153 -1.09149,0.034 -0.0731,0.028 -0.0884,0.13901 -0.0884,0.6413 v 0.60737 l 0.88024,0.0154 0.88024,0.0154 0.0174,0.68463 0.0174,0.68463 h -0.8976 -0.8976 v 1.37097 1.37099 l -0.68463,-0.0157 -0.68462,-0.0157 -0.0144,-3.31138 c -0.008,-1.82126 -0.0306,-3.31137 -0.0502,-3.31137 -0.0983,0 -1.58769,0.8151 -1.9113,1.04602 -1.08212,0.77215 -2.21957,2.16226 -2.68598,3.28264 -0.24239,0.58224 -0.49172,1.65717 -0.59045,2.54558 -0.0461,0.41498 -0.0841,0.79137 -0.0844,0.83644 -0.002,0.22295 -0.63181,-0.91764 -0.86379,-1.56298 -0.94676,-2.63379 -0.73963,-5.8 0.58065,-8.87623 0.58992,-1.37448 1.05453,-2.12032 2.13854,-3.43289 1.11088,-1.34513 1.49735,-2.04073 1.49735,-2.69501 0,-0.39121 -0.15891,-0.62618 -0.55887,-0.82634 -0.75874,-0.3797 -1.74283,-0.40646 -3.3533,-0.0912 -0.81587,0.15971 -1.03487,0.18094 -1.90019,0.18424 -0.85604,0.003 -1.03731,-0.0125 -1.4531,-0.12578 -1.28351,-0.34988 -2.32446,-1.07872 -3.01478,-2.11083 -0.329,-0.49189 -0.37812,-0.78748 -0.15687,-0.94408 0.0692,-0.0489 0.61617,-0.40975 1.21557,-0.80178 2.23085,-1.45902 2.95068,-2.06031 3.3037,-2.75966 0.0937,-0.18569 0.30468,-0.68307 0.46875,-1.10527 0.55252,-1.42181 0.91902,-2.02595 1.69705,-2.79741 0.44861,-0.44482 1.01855,-0.87688 1.65672,-1.25591 0.0867,-0.0515 0.0441,-0.16193 -0.4174,-1.0839 -0.64653,-1.29157 -1.56213,-3.35778 -1.48792,-3.35778 0.0291,0 2.48836,1.06125 2.89685,1.25006 0.23823,0.11011 0.43257,0.18198 0.43186,0.15971 -5.1e-4,-0.0223 -0.11217,-0.70659 -0.24771,-1.52067 -0.13555,-0.8141 -0.23529,-1.49132 -0.22166,-1.50495 0.0814,-0.0814 1.9536,0.81418 2.8529,1.36478 1.62581,0.99538 3.28513,2.53517 4.06485,3.77202 0.13969,0.22159 0.20941,0.27053 0.58626,0.41152 0.60842,0.22761 1.6934,0.75091 2.33665,1.12699 1.30986,0.76582 2.36016,1.58135 3.48651,2.70716 1.82185,1.82097 3.02738,3.69801 3.91365,6.09365 0.56385,1.52412 0.91885,2.1418 1.69706,2.95275 0.5744,0.59857 1.26774,1.11955 2.46289,1.85067 2.04118,1.24866 2.90304,1.87928 3.9332,2.87792 2.37908,2.30629 3.5187,4.84765 3.62289,8.07913 0.0768,2.38036 -0.48727,4.34135 -1.82963,6.36127 -1.47159,2.21437 -4.12178,4.22717 -7.14851,5.42924 -1.54297,0.61279 -3.54756,1.10486 -5.48014,1.34522 -0.47538,0.0591 -3.38889,0.11468 -3.96806,0.0757 z m -1.8443,-2.38587 c -0.47748,-0.20857 -1.04182,-0.56249 -1.55133,-0.97291 -0.46076,-0.37114 -1.25744,-1.13405 -1.18426,-1.13405 0.0317,0 0.38979,0.041 0.7958,0.0911 1.24772,0.15393 3.20963,0.0471 4.89219,-0.26632 0.34818,-0.0649 0.61225,-0.13582 0.58683,-0.1577 -0.0254,-0.0219 -0.17197,-0.0854 -0.32566,-0.14123 -0.1537,-0.0558 -0.82016,-0.35854 -1.48104,-0.67277 -1.39235,-0.66201 -2.31869,-1.03225 -3.49302,-1.39608 -1.70806,-0.52921 -2.58766,-0.69724 -3.86551,-0.73843 -1.87213,-0.0603 -3.50449,0.28194 -5.1352,1.0768 -0.70164,0.34201 -1.6517,0.95531 -2.06514,1.33312 l -0.27944,0.25536 0.25149,-0.0412 c 0.13833,-0.0227 0.6539,-0.0384 1.14571,-0.0349 1.48457,0.0105 2.63561,0.30932 5.36527,1.39273 3.06683,1.21725 4.42376,1.57177 6.06386,1.58426 l 0.69861,0.005 z m -10.4594,-13.07203 c 1.18581,-1.47449 3.1631,-2.73584 5.65873,-3.60984 0.35665,-0.12489 1.31233,-0.3937 2.12376,-0.59735 1.63798,-0.41109 2.50676,-0.68445 3.27394,-1.03015 1.11125,-0.50075 1.88486,-1.01184 2.60965,-1.72409 0.80911,-0.79511 1.24958,-1.56805 1.55251,-2.72439 0.1631,-0.62253 0.17579,-0.73836 0.17769,-1.62055 0.003,-1.46238 -0.21742,-2.3274 -0.94321,-3.69924 -0.20316,-0.38399 -0.3602,-0.70735 -0.34897,-0.71857 0.0365,-0.0365 0.77587,0.13636 1.09847,0.25694 0.17309,0.0647 0.5273,0.22793 0.78714,0.36275 0.25984,0.13482 0.48154,0.23604 0.49264,0.22492 0.0399,-0.0399 -0.6268,-1.09804 -1.06518,-1.69059 -1.17484,-1.58807 -2.40057,-2.77233 -3.87517,-3.74403 -0.59103,-0.38947 -1.84699,-1.06079 -1.89492,-1.01286 -0.0124,0.0124 0.0269,0.18464 0.0871,0.38285 0.16125,0.53031 0.1484,0.59488 -0.11093,0.55746 -0.0449,-0.007 -0.38956,-0.17628 -0.76591,-0.37736 l -0.68428,-0.3656 -0.2593,-0.62126 c -0.50232,-1.20349 -0.93741,-1.87225 -1.81843,-2.79502 -0.31774,-0.33279 -0.77988,-0.76254 -1.02699,-0.955 -0.45021,-0.35064 -1.19912,-0.83463 -1.23539,-0.79837 -0.0106,0.0106 0.0165,0.22479 0.0604,0.47593 0.19171,1.09817 0.23736,2.75799 0.094,3.41791 -0.0504,0.23202 -0.0738,0.24461 -0.73753,0.39678 -1.10099,0.25241 -2.17308,0.81044 -2.9471,1.53399 -0.6462,0.60407 -0.9711,1.04993 -1.36632,1.87496 -1.1171,2.33201 -1.12249,2.33963 -2.24503,3.17929 -0.55213,0.41298 -1.60282,1.15624 -1.86694,1.32066 -0.008,0.005 0.0256,0.0886 0.0742,0.18607 0.11383,0.22819 0.0643,0.47458 -0.15006,0.74699 l -0.16329,0.20747 0.29435,0.19906 c 0.42015,0.28415 1.07495,0.47957 1.7195,0.51317 0.56523,0.0294 0.76248,-0.002 3.35763,-0.53359 0.60179,-0.1233 1.35265,-0.25071 1.6686,-0.28313 1.26742,-0.13006 2.6056,-0.045 3.57848,0.22755 1.19044,0.33347 2.37977,1.06653 2.85798,1.76157 l 0.17031,0.24756 -0.15782,-0.0362 c -0.0868,-0.0199 -0.39734,-0.0965 -0.69008,-0.17015 -0.72877,-0.18346 -1.42143,-0.30072 -1.77697,-0.30081 l -0.29725,-5e-5 0.0366,0.43313 c 0.10542,1.24646 -0.47968,2.28412 -2.64698,4.69439 -1.70889,1.90046 -2.63821,3.72851 -2.99675,5.89492 -0.0472,0.28515 -0.0989,0.59313 -0.11481,0.68438 -0.0163,0.0936 -0.008,0.14232 0.0185,0.11178 0.0261,-0.0297 0.20315,-0.24771 0.39342,-0.48429 z m -0.0476,-16.77978 c 0,-0.0134 0.0279,-0.0951 0.062,-0.18163 0.0341,-0.0865 0.12111,-0.4443 0.1934,-0.79504 0.0723,-0.35074 0.15576,-0.66203 0.18549,-0.69176 0.13712,-0.13713 0.69277,-0.22283 1.61304,-0.24881 0.53024,-0.015 0.96364,-0.005 0.9631,0.0211 -7.5e-4,0.0685 -1.05049,0.84701 -1.64773,1.22275 -0.73811,0.46437 -1.36926,0.77479 -1.36926,0.67345 z m 11.08758,21.96427 c -0.90374,-0.20506 -1.39282,-0.70741 -1.64563,-1.6903 -0.18473,-0.71824 -0.15,-2.41444 0.0677,-3.30705 0.17029,-0.69814 0.59131,-1.31719 1.09763,-1.61391 0.62278,-0.36499 1.87797,-0.39824 2.53272,-0.0671 0.30678,0.15516 0.68828,0.6164 0.85568,1.03455 0.24891,0.62176 0.31659,1.04327 0.34924,2.17492 0.035,1.21098 -0.0474,1.88258 -0.29969,2.44479 -0.17893,0.39873 -0.62661,0.82775 -1.00735,0.96538 -0.36154,0.13069 -1.4842,0.16451 -1.95032,0.0588 z m 1.38293,-1.41912 c 0.086,-0.0962 0.1941,-0.30759 0.24024,-0.46967 0.13172,-0.46267 0.20061,-1.52056 0.1442,-2.21455 -0.0873,-1.07404 -0.36346,-1.51738 -0.94506,-1.51718 -0.79829,2.1e-4 -1.02612,0.54786 -1.0347,2.48694 -0.005,1.04117 0.003,1.13308 0.11486,1.34132 0.22563,0.42102 0.54739,0.60009 1.02132,0.56838 0.25553,-0.0171 0.32721,-0.0476 0.45914,-0.19524 z m 2.28396,1.45565 c 0,-0.0239 0.0397,-0.10017 0.0883,-0.1695 0.16845,-0.24049 1.81191,-3.21062 1.81191,-3.27456 0,-0.0514 -1.27057,-2.28223 -1.84218,-3.23449 l -0.12667,-0.21103 0.88606,0.0154 0.88606,0.0154 0.26266,0.45836 c 0.14446,0.2521 0.38719,0.70135 0.53942,0.99835 l 0.27676,0.53999 0.39184,-0.74685 c 0.21551,-0.41077 0.45715,-0.86632 0.53698,-1.01232 l 0.14512,-0.26548 h 0.84386 0.84387 l -0.12415,0.20959 c -0.28975,0.48915 -0.68665,1.22532 -1.18671,2.20108 l -0.53368,1.04139 0.97263,1.7216 c 0.53495,0.94687 0.97263,1.72944 0.97263,1.73903 0,0.01 -0.36296,0.0174 -0.80657,0.0174 h -0.80657 l -0.10738,-0.1537 c -0.0591,-0.0845 -0.34223,-0.58902 -0.62928,-1.12108 l -0.5219,-0.9674 -0.50657,1.00378 c -0.27859,0.55207 -0.55432,1.05656 -0.61271,1.12108 -0.0981,0.1084 -0.16497,0.11732 -0.87995,0.11732 -0.42557,0 -0.77378,-0.0196 -0.77378,-0.0434 z m 6.25948,-0.0149 c 0,-0.0321 0.42755,-0.81135 0.9501,-1.73167 0.52256,-0.92031 0.9501,-1.69777 0.9501,-1.72767 0,-0.0299 -0.35964,-0.66533 -0.7992,-1.41205 -0.43956,-0.74671 -0.8799,-1.50227 -0.97852,-1.67901 l -0.17932,-0.32136 h 0.91942 0.91942 l 0.51261,0.95301 c 0.28194,0.52416 0.51921,0.94542 0.52728,0.93613 0.008,-0.009 0.2261,-0.43185 0.48452,-0.93904 l 0.46984,-0.92216 0.90629,-0.0153 c 0.49846,-0.008 0.90628,-0.002 0.90628,0.0129 0,0.0155 -0.0846,0.16076 -0.18799,0.32273 -0.29887,0.4682 -0.94312,1.63637 -1.34729,2.44292 l -0.3718,0.74196 0.29482,0.5109 c 0.16216,0.28099 0.60233,1.03904 0.97815,1.68455 l 0.68334,1.17365 -0.66687,0.0157 c -0.99814,0.0235 -0.94108,0.0564 -1.433,-0.82738 -0.73767,-1.32533 -0.68832,-1.25255 -0.76992,-1.13537 -0.0393,0.0565 -0.30245,0.50451 -0.58465,0.99556 -0.28222,0.49105 -0.54316,0.91193 -0.5799,0.93527 -0.10578,0.0673 -1.60371,0.054 -1.60371,-0.0142 z"
     id="path284" /><path
     style="fill:none;stroke:#d51ae7;stroke-width:0.0826733;stroke-opacity:1"
     d="m 105.38091,-17.916662 c -0.1364,-0.0193 -0.54563,-0.0746 -0.9094,-0.12286 -2.67499,-0.35529 -5.571162,-1.6569 -7.493576,-3.36777 -4.05922,-3.612581 -5.63754,-9.448671 -4.15168,-15.351521 0.59829,-2.37687 2.04728,-5.12551 3.81445,-7.23584 0.68319,-0.81584 2.195454,-2.31014 2.834692,-2.80102 0.26586,-0.20416 0.43405,-0.43109 0.612734,-0.82674 0.46946,-1.03946 1.49859,-2.46148 2.52032,-3.48255 1.9746,-1.97332 4.13894,-3.44758 4.81127,-3.27727 0.20948,0.053 0.19705,0.0207 0.81021,2.11224 0.17836,0.60841 0.44151,1.37292 0.58477,1.69891 l 0.26047,0.59271 0.75707,0.22925 c 1.03547,0.31354 1.62562,0.58116 2.45187,1.11187 1.98668,1.27606 3.25029,2.66103 4.58837,5.02906 0.48114,0.85147 1.43799,1.86581 2.27352,2.41011 0.29556,0.19254 1.05293,0.61547 1.68304,0.93985 1.13021,0.58183 1.45732,0.85655 1.45825,1.22471 0.002,0.61974 -1.52705,2.31444 -2.71171,3.00638 -1.06339,0.62109 -1.98025,0.95684 -3.02924,1.10928 -0.82486,0.11986 -1.07322,0.12128 -2.48598,0.0142 -2.29578,-0.17405 -3.7925,-0.15108 -4.69473,0.072 -2.21211,0.54702 -3.99473,1.98819 -4.97903,4.02534 -0.45793,0.94777 -0.61001,1.53161 -0.66753,2.56287 -0.2118,3.79674 2.8574,6.948321 6.53664,6.712111 0.98051,-0.063 1.57045,-0.2238 2.52444,-0.6883 0.68766,-0.334821 0.88827,-0.486501 1.61213,-1.218951 0.94022,-0.95136 1.36371,-1.65513 1.74711,-2.90337 0.21453,-0.69846 0.2288,-0.84034 0.2328,-2.31485 0.005,-1.73682 -0.10377,-2.4765 -0.54982,-3.74944 -0.13308,-0.37978 -0.22912,-0.70336 -0.21341,-0.71907 0.0721,-0.0721 1.23155,0.57245 1.67489,0.93117 1.83112,1.48164 2.55208,3.73273 2.02455,6.32138 -0.52548,2.57855 -2.18799,4.855801 -4.51914,6.190141 -1.25762,0.71986 -3.2777,1.38408 -5.02669,1.65282 -0.58941,0.0906 -3.93051,0.17684 -4.38166,0.11315 z m 0.20668,-2.54378 c 0,-0.0163 -0.19531,-0.15978 -0.43402,-0.31885 -1.39204,-0.92759 -2.6942,-2.731281 -3.19775,-4.429391 -1.35326,-4.5635 0.64053,-9.35356 4.74787,-11.40676 1.64673,-0.82317 3.58892,-1.05851 6.28314,-0.76134 2.70144,0.29797 4.07661,0.15817 5.42767,-0.55179 0.30395,-0.15972 0.61898,-0.36372 0.70008,-0.45333 0.14268,-0.15766 0.13955,-0.1693 -0.0966,-0.36007 -0.13422,-0.10843 -0.44098,-0.32043 -0.68171,-0.47111 -0.24072,-0.15067 -0.66856,-0.41986 -0.95074,-0.59818 -0.77008,-0.48664 -2.09091,-1.86104 -2.54915,-2.65254 -0.21043,-0.36348 -0.61967,-1.0691 -0.9094,-1.56805 -1.04755,-1.80394 -2.54054,-2.93138 -4.39788,-3.32108 -0.55365,-0.11616 -1.0627,-0.10932 -1.737,0.0233 -0.20857,0.041 -0.23153,0.0247 -0.20883,-0.14854 0.0145,-0.1108 -0.11895,-0.4615 -0.30987,-0.81417 -0.37259,-0.68827 -0.60977,-1.26176 -0.85508,-2.06749 -0.27538,-0.90451 -0.28028,-0.90605 -0.97947,-0.30815 -1.25664,1.07462 -2.34111,2.49441 -3.00175,3.92996 -0.22403,0.48679 -0.45376,0.97657 -0.51051,1.08839 -0.0568,0.11183 -0.45603,0.4765 -0.8873,0.81039 -3.055966,2.36596 -5.148076,5.66951 -5.912466,9.3361 -1.34497,6.45155 1.39926,12.05362 6.953876,14.195671 1.11028,0.42817 3.50687,1.00699 3.50687,0.84698 z m 6.9032,-20.943301 c -1.65403,-0.10704 -2.51892,-0.53712 -3.00827,-1.49588 l -0.15707,-0.30772 1.1693,0.0223 c 1.52859,0.0292 1.65393,0.0546 2.05523,0.41639 0.53256,0.48014 0.87485,1.44527 0.49886,1.40654 -0.0796,-0.008 -0.3307,-0.027 -0.55805,-0.0416 z m -39.393816,17.666 v -0.3307 h 0.69402 c 1.41553,0 2.28846,-0.48888 2.58405,-1.44718 0.14507,-0.47034 0.15288,-0.99571 0.15288,-10.29245 0,-7.81122 -0.0218,-9.86889 -0.10769,-10.15248 -0.25066,-0.82786 -1.16855,-1.33948 -2.5172,-1.40304 l -0.80606,-0.038 v -0.32108 -0.32108 h 9.12258 9.12257 l 0.0534,1.26077 c 0.0294,0.69343 0.0782,1.90253 0.10844,2.6869 l 0.0551,1.42611 h -0.28599 c -0.28281,0 -0.28807,-0.007 -0.47204,-0.59938 -0.57296,-1.84587 -1.51112,-2.86568 -2.99529,-3.25597 -0.44723,-0.11761 -1.09633,-0.14479 -4.14718,-0.17366 l -3.61696,-0.0342 v 4.84746 4.84746 l 2.83157,-0.0256 c 2.77234,-0.025 2.8406,-0.0297 3.26369,-0.22099 0.83748,-0.37864 1.32785,-1.16715 1.53482,-2.46792 l 0.0958,-0.6023 h 0.31206 0.31206 v 4.13367 4.13367 h -0.28052 c -0.32617,0 -0.38087,-0.0935 -0.38087,-0.65077 0,-0.8793 -0.37321,-1.7452 -0.96103,-2.22972 -0.62673,-0.51661 -0.77471,-0.53836 -3.89603,-0.57245 l -2.83157,-0.031 5.5e-4,4.57351 c 4.7e-4,2.7705 0.0346,4.78535 0.0868,5.11088 0.12462,0.7772 0.35766,1.08235 1.11086,1.4546 0.57311,0.28325 0.69679,0.31207 1.49082,0.34738 l 0.86586,0.0385 v 0.31985 0.31985 h -5.24977 -5.24976 z m 48.363886,0.0141 v -0.31661 l 0.66079,-0.142 c 1.32675,-0.2851 2.86753,-1.24772 4.13427,-2.58294 0.56862,-0.59935 6.91848,-8.49973 7.0123,-8.72457 0.0324,-0.0776 -4.69957,-7.02163 -5.68166,-8.33761 -1.70254,-2.28136 -3.02461,-3.20893 -4.97994,-3.49392 l -0.64972,-0.0947 v -0.31386 -0.31386 h 5.66313 5.66314 v 0.31237 0.31238 l -0.69473,0.0947 c -0.95827,0.13067 -1.47244,0.41312 -1.76057,0.96713 -0.16173,0.31097 -0.092,0.75393 0.22188,1.40936 0.2383,0.49759 4.25082,6.52075 4.36463,6.5517 0.0952,0.0259 4.90926,-6.12519 5.20507,-6.65062 0.20394,-0.36226 0.26794,-0.57597 0.26869,-0.89732 0.002,-0.86175 -0.60356,-1.3247 -1.84763,-1.4125 l -0.71426,-0.0504 v -0.31842 -0.31841 h 4.34035 4.34036 v 0.31386 0.31386 l -0.67593,0.0985 c -1.53185,0.22327 -2.77742,1.10605 -4.45782,3.15942 -1.29746,1.58541 -5.53113,7.03132 -5.53113,7.11485 0,0.13481 6.05774,9.10436 6.8549,10.14988 1.38735,1.8196 2.34351,2.53101 3.69471,2.74898 l 0.61131,0.0986 v 0.31935 0.31935 h -5.24977 -5.24976 v -0.33069 c 0,-0.31933 0.009,-0.3307 0.27417,-0.3307 1.82346,0 2.63141,-1.0922 1.85173,-2.50322 -0.15632,-0.28289 -1.35254,-2.12847 -2.65828,-4.10126 -1.97793,-2.98839 -2.39193,-3.56778 -2.48109,-3.47228 -0.27541,0.29495 -5.50124,7.03762 -5.80645,7.49183 -0.91113,1.35587 -0.34361,2.37196 1.4261,2.55327 l 0.53192,0.0545 v 0.31927 0.31929 h -4.34035 -4.34036 z m 26.86887,0 v -0.31661 l 0.66079,-0.142 c 0.80944,-0.17394 1.91759,-0.71588 2.78812,-1.36353 0.88328,-0.65714 1.82089,-1.66898 3.3752,-3.64238 0.72558,-0.92123 2.11525,-2.68526 3.08816,-3.92006 0.97292,-1.23482 1.8004,-2.28579 1.83885,-2.3355 0.0436,-0.0564 -0.35437,-0.70973 -1.05754,-1.73614 -0.62011,-0.90517 -1.74135,-2.55723 -2.49165,-3.67126 -1.77357,-2.63335 -2.62606,-3.76604 -3.489,-4.63581 -1.08113,-1.08968 -2.11873,-1.62325 -3.56716,-1.83436 l -0.64972,-0.0947 v -0.31386 -0.31386 h 5.66312 5.66314 v 0.32474 0.32475 l -0.47538,0.0536 c -0.84747,0.0956 -1.32534,0.27088 -1.66548,0.61102 -0.17353,0.17353 -0.33487,0.41679 -0.35853,0.54055 -0.0577,0.30164 0.0616,0.79962 0.30795,1.28576 0.19405,0.38295 1.73642,2.72944 3.49453,5.31645 l 0.83111,1.22296 2.53305,-3.20712 c 1.39318,-1.76391 2.629,-3.40306 2.74627,-3.64255 0.31035,-0.63384 0.25007,-1.15004 -0.18651,-1.59715 -0.36095,-0.36965 -0.61234,-0.45468 -1.58455,-0.53596 l -0.68206,-0.057 v -0.32002 -0.32002 h 4.3817 4.38169 v 0.33069 c 0,0.20791 -0.0384,0.33177 -0.10334,0.33358 -0.0568,0.002 -0.38683,0.0534 -0.73331,0.11525 -1.37488,0.24524 -2.66079,1.15936 -4.15402,2.95297 -1.30635,1.56915 -5.66832,7.2394 -5.63557,7.32584 0.0814,0.21481 6.04377,9.02917 6.72433,9.94073 1.4458,1.93655 2.31661,2.60022 3.75941,2.86515 l 0.72121,0.13242 v 0.32004 0.32002 h -5.2911 -5.2911 v -0.32257 -0.32258 l 0.51671,-0.056 c 1.02094,-0.11068 1.48327,-0.34066 1.75978,-0.87537 0.14809,-0.28638 0.15071,-0.84163 0.006,-1.24707 -0.14732,-0.41243 -5.18722,-8.03066 -5.25828,-7.94835 -0.0312,0.0362 -0.9707,1.23765 -2.08774,2.66996 -1.11704,1.43232 -2.31522,2.95765 -2.66263,3.38961 -0.92575,1.15107 -1.42605,1.92565 -1.49061,2.3078 -0.17863,1.05727 0.60867,1.68788 2.16898,1.73731 0.16093,0.005 0.18602,0.0505 0.18602,0.33659 v 0.33069 h -4.34036 -4.34035 v -0.31662 z"
     id="path2435" /><path
     style="fill:none;stroke:#d51ae7;stroke-width:0.0826733;stroke-opacity:1"
     d="m 363.35291,-18.613426 c -0.1364,-0.0193 -0.54563,-0.0746 -0.9094,-0.12286 -2.67499,-0.35529 -5.57116,-1.6569 -7.49358,-3.36777 -4.05922,-3.612581 -5.63754,-9.448671 -4.15168,-15.351521 0.59829,-2.37687 2.04728,-5.12551 3.81445,-7.23584 0.68319,-0.81584 2.19546,-2.31014 2.83469,-2.80102 0.26586,-0.20416 0.43405,-0.43109 0.61274,-0.82674 0.46946,-1.03946 1.49859,-2.46148 2.52032,-3.48255 1.9746,-1.97332 4.13894,-3.44758 4.81127,-3.27727 0.20948,0.053 0.19705,0.0207 0.81021,2.11224 0.17836,0.60841 0.44151,1.37292 0.58477,1.69891 l 0.26047,0.59271 0.75707,0.22925 c 1.03547,0.31354 1.62562,0.58116 2.45187,1.11187 1.98668,1.27606 3.25029,2.66103 4.58837,5.02906 0.48114,0.85147 1.43799,1.86581 2.27352,2.41011 0.29556,0.19254 1.05293,0.61547 1.68304,0.93985 1.13021,0.58183 1.45732,0.85655 1.45825,1.22471 0.002,0.61974 -1.52705,2.31444 -2.71171,3.00638 -1.06339,0.62109 -1.98025,0.95684 -3.02924,1.10928 -0.82486,0.11986 -1.07322,0.12128 -2.48598,0.0142 -2.29578,-0.17405 -3.7925,-0.15108 -4.69473,0.072 -2.21211,0.54702 -3.99473,1.98819 -4.97903,4.02534 -0.45793,0.94777 -0.61001,1.53161 -0.66753,2.56287 -0.2118,3.79674 2.8574,6.948321 6.53664,6.712111 0.98051,-0.063 1.57045,-0.2238 2.52444,-0.6883 0.68766,-0.334821 0.88827,-0.486501 1.61213,-1.218951 0.94022,-0.95136 1.36371,-1.65513 1.74711,-2.90337 0.21453,-0.69846 0.2288,-0.84034 0.2328,-2.31485 0.005,-1.73682 -0.10377,-2.4765 -0.54982,-3.74944 -0.13308,-0.37978 -0.22912,-0.70336 -0.21341,-0.71907 0.0721,-0.0721 1.23155,0.57245 1.67489,0.93117 1.83112,1.48164 2.55208,3.73273 2.02455,6.32138 -0.52548,2.57855 -2.18799,4.855801 -4.51914,6.190141 -1.25762,0.71986 -3.2777,1.38408 -5.02669,1.65282 -0.58941,0.0906 -3.93051,0.17684 -4.38166,0.11315 z m 0.20668,-2.54378 c 0,-0.0163 -0.19531,-0.15978 -0.43402,-0.31885 -1.39204,-0.92759 -2.6942,-2.731281 -3.19775,-4.429391 -1.35326,-4.5635 0.64053,-9.35356 4.74787,-11.40676 1.64673,-0.82317 3.58892,-1.05851 6.28314,-0.76134 2.70144,0.29797 4.07661,0.15817 5.42767,-0.55179 0.30395,-0.15972 0.61898,-0.36372 0.70008,-0.45333 0.14268,-0.15766 0.13955,-0.1693 -0.0966,-0.36007 -0.13422,-0.10843 -0.44098,-0.32043 -0.68171,-0.47111 -0.24072,-0.15067 -0.66856,-0.41986 -0.95074,-0.59818 -0.77008,-0.48664 -2.09091,-1.86104 -2.54915,-2.65254 -0.21043,-0.36348 -0.61967,-1.0691 -0.9094,-1.56805 -1.04755,-1.80394 -2.54054,-2.93138 -4.39788,-3.32108 -0.55365,-0.11616 -1.0627,-0.10932 -1.737,0.0233 -0.20857,0.041 -0.23153,0.0247 -0.20883,-0.14854 0.0145,-0.1108 -0.11895,-0.4615 -0.30987,-0.81417 -0.37259,-0.68827 -0.60977,-1.26176 -0.85508,-2.06749 -0.27538,-0.90451 -0.28028,-0.90605 -0.97947,-0.30815 -1.25664,1.07462 -2.34111,2.49441 -3.00175,3.92996 -0.22403,0.48679 -0.45376,0.97657 -0.51051,1.08839 -0.0568,0.11183 -0.45603,0.4765 -0.8873,0.81039 -3.05597,2.36596 -5.14808,5.66951 -5.91247,9.3361 -1.34497,6.45155 1.39926,12.05362 6.95388,14.195671 1.11028,0.42817 3.50687,1.00699 3.50687,0.84698 z m 6.9032,-20.943301 c -1.65403,-0.10704 -2.51892,-0.53712 -3.00827,-1.49588 l -0.15707,-0.30772 1.1693,0.0223 c 1.52859,0.0292 1.65393,0.0546 2.05523,0.41639 0.53256,0.48014 0.87485,1.44527 0.49886,1.40654 -0.0796,-0.008 -0.3307,-0.027 -0.55805,-0.0416 z m -39.39382,17.666 v -0.3307 h 0.69402 c 1.41553,0 2.28846,-0.48888 2.58405,-1.44718 0.14507,-0.47034 0.15288,-0.99571 0.15288,-10.29245 0,-7.81122 -0.0218,-9.86889 -0.10769,-10.15248 -0.25066,-0.82786 -1.16855,-1.33948 -2.5172,-1.40304 l -0.80606,-0.038 v -0.32108 -0.32108 h 9.12258 9.12257 l 0.0534,1.26077 c 0.0294,0.69343 0.0782,1.90253 0.10844,2.6869 l 0.0551,1.42611 h -0.28599 c -0.28281,0 -0.28807,-0.007 -0.47204,-0.59938 -0.57296,-1.84587 -1.51112,-2.86568 -2.99529,-3.25597 -0.44723,-0.11761 -1.09633,-0.14479 -4.14718,-0.17366 l -3.61696,-0.0342 v 4.84746 4.84746 l 2.83157,-0.0256 c 2.77234,-0.025 2.8406,-0.0297 3.26369,-0.22099 0.83748,-0.37864 1.32785,-1.16715 1.53482,-2.46792 l 0.0958,-0.6023 h 0.31206 0.31206 v 4.13367 4.13367 h -0.28052 c -0.32617,0 -0.38087,-0.0935 -0.38087,-0.65077 0,-0.8793 -0.37321,-1.7452 -0.96103,-2.22972 -0.62673,-0.51661 -0.77471,-0.53836 -3.89603,-0.57245 l -2.83157,-0.031 5.5e-4,4.57351 c 4.7e-4,2.7705 0.0346,4.78535 0.0868,5.11088 0.12462,0.7772 0.35766,1.08235 1.11086,1.4546 0.57311,0.28325 0.69679,0.31207 1.49082,0.34738 l 0.86586,0.0385 v 0.31985 0.31985 h -5.24977 -5.24976 z m 48.36389,0.0141 v -0.31661 l 0.66079,-0.142 c 1.32675,-0.2851 2.86753,-1.24772 4.13427,-2.58294 0.56862,-0.59935 6.91848,-8.49973 7.0123,-8.72457 0.0324,-0.0776 -4.69957,-7.02163 -5.68166,-8.33761 -1.70254,-2.28136 -3.02461,-3.20893 -4.97994,-3.49392 l -0.64972,-0.0947 v -0.31386 -0.31386 h 5.66313 5.66314 v 0.31237 0.31238 l -0.69473,0.0947 c -0.95827,0.13067 -1.47244,0.41312 -1.76057,0.96713 -0.16173,0.31097 -0.092,0.75393 0.22188,1.40936 0.2383,0.49759 4.25082,6.52075 4.36463,6.5517 0.0952,0.0259 4.90926,-6.12519 5.20507,-6.65062 0.20394,-0.36226 0.26794,-0.57597 0.26869,-0.89732 0.002,-0.86175 -0.60356,-1.3247 -1.84763,-1.4125 l -0.71426,-0.0504 v -0.31842 -0.31841 h 4.34035 4.34036 v 0.31386 0.31386 l -0.67593,0.0985 c -1.53185,0.22327 -2.77742,1.10605 -4.45782,3.15942 -1.29746,1.58541 -5.53113,7.03132 -5.53113,7.11485 0,0.13481 6.05774,9.10436 6.8549,10.14988 1.38735,1.8196 2.34351,2.53101 3.69471,2.74898 l 0.61131,0.0986 v 0.31935 0.31935 h -5.24977 -5.24976 v -0.33069 c 0,-0.31933 0.009,-0.3307 0.27417,-0.3307 1.82346,0 2.63141,-1.0922 1.85173,-2.50322 -0.15632,-0.28289 -1.35254,-2.12847 -2.65828,-4.10126 -1.97793,-2.98839 -2.39193,-3.56778 -2.48109,-3.47228 -0.27541,0.29495 -5.50124,7.03762 -5.80645,7.49183 -0.91113,1.35587 -0.34361,2.37196 1.4261,2.55327 l 0.53192,0.0545 v 0.31927 0.31929 h -4.34035 -4.34036 z m 26.86887,0 v -0.31661 l 0.66079,-0.142 c 0.80944,-0.17394 1.91759,-0.71588 2.78812,-1.36353 0.88328,-0.65714 1.82089,-1.66898 3.3752,-3.64238 0.72558,-0.92123 2.11525,-2.68526 3.08816,-3.92006 0.97292,-1.23482 1.8004,-2.28579 1.83885,-2.3355 0.0436,-0.0564 -0.35437,-0.70973 -1.05754,-1.73614 -0.62011,-0.90517 -1.74135,-2.55723 -2.49165,-3.67126 -1.77357,-2.63335 -2.62606,-3.76604 -3.489,-4.63581 -1.08113,-1.08968 -2.11873,-1.62325 -3.56716,-1.83436 l -0.64972,-0.0947 v -0.31386 -0.31386 h 5.66312 5.66314 v 0.32474 0.32475 l -0.47538,0.0536 c -0.84747,0.0956 -1.32534,0.27088 -1.66548,0.61102 -0.17353,0.17353 -0.33487,0.41679 -0.35853,0.54055 -0.0577,0.30164 0.0616,0.79962 0.30795,1.28576 0.19405,0.38295 1.73642,2.72944 3.49453,5.31645 l 0.83111,1.22296 2.53305,-3.20712 c 1.39318,-1.76391 2.629,-3.40306 2.74627,-3.64255 0.31035,-0.63384 0.25007,-1.15004 -0.18651,-1.59715 -0.36095,-0.36965 -0.61234,-0.45468 -1.58455,-0.53596 l -0.68206,-0.057 v -0.32002 -0.32002 h 4.3817 4.38169 v 0.33069 c 0,0.20791 -0.0384,0.33177 -0.10334,0.33358 -0.0568,0.002 -0.38683,0.0534 -0.73331,0.11525 -1.37488,0.24524 -2.66079,1.15936 -4.15402,2.95297 -1.30635,1.56915 -5.66832,7.2394 -5.63557,7.32584 0.0814,0.21481 6.04377,9.02917 6.72433,9.94073 1.4458,1.93655 2.31661,2.60022 3.75941,2.86515 l 0.72121,0.13242 v 0.32004 0.32002 h -5.2911 -5.2911 v -0.32257 -0.32258 l 0.51671,-0.056 c 1.02094,-0.11068 1.48327,-0.34066 1.75978,-0.87537 0.14809,-0.28638 0.15071,-0.84163 0.006,-1.24707 -0.14732,-0.41243 -5.18722,-8.03066 -5.25828,-7.94835 -0.0312,0.0362 -0.9707,1.23765 -2.08774,2.66996 -1.11704,1.43232 -2.31522,2.95765 -2.66263,3.38961 -0.92575,1.15107 -1.42605,1.92565 -1.49061,2.3078 -0.17863,1.05727 0.60867,1.68788 2.16898,1.73731 0.16093,0.005 0.18602,0.0505 0.18602,0.33659 v 0.33069 h -4.34036 -4.34035 v -0.31662 z"
     id="path2435-9" /><circle
     style="fill:none;stroke:#d51ae7;stroke-width:0.0999995;stroke-opacity:1"
     id="path2555"
     cx="56.178677"
     cy="-272.94193"
     r="12.99993" /></svg>
